<mxfile host="app.diagrams.net" modified="2023-09-21T17:21:30.176Z" agent="Mozilla/5.0 (Macintosh; Intel Mac OS X 10_15_7) AppleWebKit/537.36 (KHTML, like Gecko) Chrome/116.0.0.0 Safari/537.36" etag="SiQYoUvZVK8a_TtwMNXh" version="21.8.0" type="github">
  <diagram name="페이지-1" id="Gm5ZMtCpNTPyibBY-xQk">
    <mxGraphModel dx="1841" dy="1036" grid="1" gridSize="10" guides="1" tooltips="1" connect="1" arrows="1" fold="1" page="1" pageScale="1" pageWidth="827" pageHeight="1169" math="0" shadow="0">
      <root>
        <mxCell id="0" />
        <mxCell id="1" parent="0" />
        <mxCell id="wt94SHeyuZAHFJZUm_wI-1" value="이용자" style="shape=umlActor;verticalLabelPosition=bottom;verticalAlign=top;html=1;" vertex="1" parent="1">
          <mxGeometry x="10" y="420" width="40" height="80" as="geometry" />
        </mxCell>
        <mxCell id="wt94SHeyuZAHFJZUm_wI-8" value="게시판 서비스" style="shape=umlFrame;whiteSpace=wrap;html=1;pointerEvents=0;width=80;height=30;" vertex="1" parent="1">
          <mxGeometry x="110" y="230" width="650" height="710" as="geometry" />
        </mxCell>
        <mxCell id="wt94SHeyuZAHFJZUm_wI-20" style="rounded=0;orthogonalLoop=1;jettySize=auto;html=1;endArrow=none;endFill=0;" edge="1" parent="1" source="wt94SHeyuZAHFJZUm_wI-9" target="wt94SHeyuZAHFJZUm_wI-1">
          <mxGeometry relative="1" as="geometry" />
        </mxCell>
        <mxCell id="wt94SHeyuZAHFJZUm_wI-9" value="회원 가입" style="rounded=1;whiteSpace=wrap;html=1;arcSize=40;fontColor=#000000;fillColor=#ffffc0;strokeColor=#ff0000;" vertex="1" parent="1">
          <mxGeometry x="150" y="400" width="120" height="40" as="geometry" />
        </mxCell>
        <mxCell id="wt94SHeyuZAHFJZUm_wI-32" style="rounded=0;orthogonalLoop=1;jettySize=auto;html=1;dashed=1;" edge="1" parent="1" source="wt94SHeyuZAHFJZUm_wI-11">
          <mxGeometry relative="1" as="geometry">
            <mxPoint x="360" y="310" as="targetPoint" />
          </mxGeometry>
        </mxCell>
        <mxCell id="wt94SHeyuZAHFJZUm_wI-11" value="게시판 보기" style="rounded=1;whiteSpace=wrap;html=1;arcSize=40;fontColor=#000000;fillColor=#ffffc0;strokeColor=#ff0000;" vertex="1" parent="1">
          <mxGeometry x="150" y="545" width="120" height="40" as="geometry" />
        </mxCell>
        <mxCell id="wt94SHeyuZAHFJZUm_wI-23" style="rounded=0;orthogonalLoop=1;jettySize=auto;html=1;endArrow=none;endFill=0;entryX=0.505;entryY=0.306;entryDx=0;entryDy=0;entryPerimeter=0;" edge="1" parent="1" source="wt94SHeyuZAHFJZUm_wI-12" target="wt94SHeyuZAHFJZUm_wI-1">
          <mxGeometry relative="1" as="geometry">
            <mxPoint x="60" y="490" as="targetPoint" />
          </mxGeometry>
        </mxCell>
        <mxCell id="wt94SHeyuZAHFJZUm_wI-33" style="rounded=0;orthogonalLoop=1;jettySize=auto;html=1;dashed=1;" edge="1" parent="1" source="wt94SHeyuZAHFJZUm_wI-12" target="wt94SHeyuZAHFJZUm_wI-13">
          <mxGeometry relative="1" as="geometry" />
        </mxCell>
        <mxCell id="wt94SHeyuZAHFJZUm_wI-12" value="게시글 보기" style="rounded=1;whiteSpace=wrap;html=1;arcSize=40;fontColor=#000000;fillColor=#ffffc0;strokeColor=#ff0000;" vertex="1" parent="1">
          <mxGeometry x="150" y="770" width="120" height="40" as="geometry" />
        </mxCell>
        <mxCell id="wt94SHeyuZAHFJZUm_wI-27" style="rounded=0;orthogonalLoop=1;jettySize=auto;html=1;endArrow=classic;endFill=1;dashed=1;" edge="1" parent="1" source="wt94SHeyuZAHFJZUm_wI-13" target="wt94SHeyuZAHFJZUm_wI-14">
          <mxGeometry relative="1" as="geometry" />
        </mxCell>
        <mxCell id="wt94SHeyuZAHFJZUm_wI-28" value="&amp;lt;&amp;lt;include&amp;gt;&amp;gt;" style="edgeLabel;html=1;align=center;verticalAlign=middle;resizable=0;points=[];" vertex="1" connectable="0" parent="wt94SHeyuZAHFJZUm_wI-27">
          <mxGeometry x="-0.0522" y="1" relative="1" as="geometry">
            <mxPoint as="offset" />
          </mxGeometry>
        </mxCell>
        <mxCell id="wt94SHeyuZAHFJZUm_wI-13" value="회원 로그인" style="rounded=1;whiteSpace=wrap;html=1;arcSize=40;fontColor=#000000;fillColor=#ffffc0;strokeColor=#ff0000;" vertex="1" parent="1">
          <mxGeometry x="305" y="270" width="120" height="40" as="geometry" />
        </mxCell>
        <mxCell id="wt94SHeyuZAHFJZUm_wI-42" style="rounded=0;orthogonalLoop=1;jettySize=auto;html=1;entryX=0;entryY=0.5;entryDx=0;entryDy=0;endArrow=none;endFill=0;exitX=1;exitY=0.5;exitDx=0;exitDy=0;" edge="1" parent="1" source="wt94SHeyuZAHFJZUm_wI-14" target="wt94SHeyuZAHFJZUm_wI-40">
          <mxGeometry relative="1" as="geometry" />
        </mxCell>
        <mxCell id="wt94SHeyuZAHFJZUm_wI-14" value="인증" style="rounded=1;whiteSpace=wrap;html=1;arcSize=40;fontColor=#000000;fillColor=#ffffc0;strokeColor=#ff0000;" vertex="1" parent="1">
          <mxGeometry x="590" y="270" width="120" height="40" as="geometry" />
        </mxCell>
        <mxCell id="wt94SHeyuZAHFJZUm_wI-29" style="rounded=0;orthogonalLoop=1;jettySize=auto;html=1;strokeColor=none;" edge="1" parent="1" source="wt94SHeyuZAHFJZUm_wI-15" target="wt94SHeyuZAHFJZUm_wI-13">
          <mxGeometry relative="1" as="geometry" />
        </mxCell>
        <mxCell id="wt94SHeyuZAHFJZUm_wI-30" style="rounded=0;orthogonalLoop=1;jettySize=auto;html=1;entryX=1;entryY=0.75;entryDx=0;entryDy=0;dashed=1;" edge="1" parent="1" source="wt94SHeyuZAHFJZUm_wI-15" target="wt94SHeyuZAHFJZUm_wI-13">
          <mxGeometry relative="1" as="geometry" />
        </mxCell>
        <mxCell id="wt94SHeyuZAHFJZUm_wI-31" value="&amp;lt;&amp;lt;extend&amp;gt;&amp;gt;" style="edgeLabel;html=1;align=center;verticalAlign=middle;resizable=0;points=[];" vertex="1" connectable="0" parent="wt94SHeyuZAHFJZUm_wI-30">
          <mxGeometry x="0.0467" y="-1" relative="1" as="geometry">
            <mxPoint as="offset" />
          </mxGeometry>
        </mxCell>
        <mxCell id="wt94SHeyuZAHFJZUm_wI-15" value="로그인 실패" style="rounded=1;whiteSpace=wrap;html=1;arcSize=40;fontColor=#000000;fillColor=#ffffc0;strokeColor=#ff0000;" vertex="1" parent="1">
          <mxGeometry x="590" y="350" width="120" height="38" as="geometry" />
        </mxCell>
        <mxCell id="wt94SHeyuZAHFJZUm_wI-36" style="rounded=0;orthogonalLoop=1;jettySize=auto;html=1;dashed=1;" edge="1" parent="1" source="wt94SHeyuZAHFJZUm_wI-16">
          <mxGeometry relative="1" as="geometry">
            <mxPoint x="270" y="555" as="targetPoint" />
          </mxGeometry>
        </mxCell>
        <mxCell id="wt94SHeyuZAHFJZUm_wI-16" value="게시판 정렬" style="rounded=1;whiteSpace=wrap;html=1;arcSize=40;fontColor=#000000;fillColor=#ffffc0;strokeColor=#ff0000;" vertex="1" parent="1">
          <mxGeometry x="450" y="410" width="120" height="40" as="geometry" />
        </mxCell>
        <mxCell id="wt94SHeyuZAHFJZUm_wI-37" style="rounded=0;orthogonalLoop=1;jettySize=auto;html=1;dashed=1;" edge="1" parent="1" source="wt94SHeyuZAHFJZUm_wI-17" target="wt94SHeyuZAHFJZUm_wI-11">
          <mxGeometry relative="1" as="geometry" />
        </mxCell>
        <mxCell id="wt94SHeyuZAHFJZUm_wI-17" value="게시판 검색" style="rounded=1;whiteSpace=wrap;html=1;arcSize=40;fontColor=#000000;fillColor=#ffffc0;strokeColor=#ff0000;" vertex="1" parent="1">
          <mxGeometry x="450" y="550" width="120" height="40" as="geometry" />
        </mxCell>
        <mxCell id="wt94SHeyuZAHFJZUm_wI-38" style="rounded=0;orthogonalLoop=1;jettySize=auto;html=1;entryX=1;entryY=0.5;entryDx=0;entryDy=0;dashed=1;" edge="1" parent="1" source="wt94SHeyuZAHFJZUm_wI-18" target="wt94SHeyuZAHFJZUm_wI-12">
          <mxGeometry relative="1" as="geometry" />
        </mxCell>
        <mxCell id="wt94SHeyuZAHFJZUm_wI-45" style="rounded=0;orthogonalLoop=1;jettySize=auto;html=1;entryX=0;entryY=0.5;entryDx=0;entryDy=0;endArrow=none;endFill=0;" edge="1" parent="1" source="wt94SHeyuZAHFJZUm_wI-18" target="wt94SHeyuZAHFJZUm_wI-40">
          <mxGeometry relative="1" as="geometry" />
        </mxCell>
        <mxCell id="wt94SHeyuZAHFJZUm_wI-18" value="게시글 쓰기, 수정, 삭제" style="rounded=1;whiteSpace=wrap;html=1;arcSize=40;fontColor=#000000;fillColor=#ffffc0;strokeColor=#ff0000;" vertex="1" parent="1">
          <mxGeometry x="450" y="680" width="120" height="40" as="geometry" />
        </mxCell>
        <mxCell id="wt94SHeyuZAHFJZUm_wI-39" style="rounded=0;orthogonalLoop=1;jettySize=auto;html=1;entryX=1;entryY=0.5;entryDx=0;entryDy=0;dashed=1;" edge="1" parent="1" source="wt94SHeyuZAHFJZUm_wI-19" target="wt94SHeyuZAHFJZUm_wI-12">
          <mxGeometry relative="1" as="geometry" />
        </mxCell>
        <mxCell id="wt94SHeyuZAHFJZUm_wI-46" style="rounded=0;orthogonalLoop=1;jettySize=auto;html=1;entryX=0;entryY=0.5;entryDx=0;entryDy=0;endArrow=none;endFill=0;" edge="1" parent="1" source="wt94SHeyuZAHFJZUm_wI-19" target="wt94SHeyuZAHFJZUm_wI-40">
          <mxGeometry relative="1" as="geometry" />
        </mxCell>
        <mxCell id="wt94SHeyuZAHFJZUm_wI-19" value="댓글 보기, 쓰기, 수정, &lt;br&gt;삭제" style="rounded=1;whiteSpace=wrap;html=1;arcSize=40;fontColor=#000000;fillColor=#ffffc0;strokeColor=#ff0000;" vertex="1" parent="1">
          <mxGeometry x="450" y="760" width="120" height="40" as="geometry" />
        </mxCell>
        <mxCell id="wt94SHeyuZAHFJZUm_wI-21" style="rounded=0;orthogonalLoop=1;jettySize=auto;html=1;entryX=0.53;entryY=0.306;entryDx=0;entryDy=0;entryPerimeter=0;endArrow=none;endFill=0;" edge="1" parent="1" source="wt94SHeyuZAHFJZUm_wI-13" target="wt94SHeyuZAHFJZUm_wI-1">
          <mxGeometry relative="1" as="geometry" />
        </mxCell>
        <mxCell id="wt94SHeyuZAHFJZUm_wI-22" style="rounded=0;orthogonalLoop=1;jettySize=auto;html=1;entryX=0.505;entryY=0.318;entryDx=0;entryDy=0;entryPerimeter=0;endArrow=none;endFill=0;" edge="1" parent="1" source="wt94SHeyuZAHFJZUm_wI-11" target="wt94SHeyuZAHFJZUm_wI-1">
          <mxGeometry relative="1" as="geometry" />
        </mxCell>
        <mxCell id="wt94SHeyuZAHFJZUm_wI-34" style="edgeStyle=orthogonalEdgeStyle;rounded=0;orthogonalLoop=1;jettySize=auto;html=1;exitX=0.25;exitY=1;exitDx=0;exitDy=0;entryX=0.5;entryY=1;entryDx=0;entryDy=0;" edge="1" parent="1" source="wt94SHeyuZAHFJZUm_wI-13" target="wt94SHeyuZAHFJZUm_wI-13">
          <mxGeometry relative="1" as="geometry" />
        </mxCell>
        <mxCell id="wt94SHeyuZAHFJZUm_wI-43" style="rounded=0;orthogonalLoop=1;jettySize=auto;html=1;entryX=0.629;entryY=0.011;entryDx=0;entryDy=0;endArrow=none;endFill=0;entryPerimeter=0;" edge="1" parent="1" source="wt94SHeyuZAHFJZUm_wI-40" target="wt94SHeyuZAHFJZUm_wI-11">
          <mxGeometry relative="1" as="geometry" />
        </mxCell>
        <mxCell id="wt94SHeyuZAHFJZUm_wI-44" style="rounded=0;orthogonalLoop=1;jettySize=auto;html=1;entryX=1;entryY=0.5;entryDx=0;entryDy=0;endArrow=none;endFill=0;" edge="1" parent="1" source="wt94SHeyuZAHFJZUm_wI-40" target="wt94SHeyuZAHFJZUm_wI-12">
          <mxGeometry relative="1" as="geometry" />
        </mxCell>
        <mxCell id="wt94SHeyuZAHFJZUm_wI-40" value="DB" style="html=1;dropTarget=0;whiteSpace=wrap;" vertex="1" parent="1">
          <mxGeometry x="827" y="370" width="120" height="90" as="geometry" />
        </mxCell>
      </root>
    </mxGraphModel>
  </diagram>
</mxfile>
